<svg version="1.1" id="Layer_1" xmlns="http://www.w3.org/2000/svg" xmlns:xlink="http://www.w3.org/1999/xlink" x="0px" y="0px"
	 width="100%" viewBox="0 0 275 183" enable-background="new 0 0 275 183" xml:space="preserve">
<path fill="#C80C0C" opacity="1.000000" stroke="none" 
	d="
M172.000000,184.000000 
	C114.666672,184.000000 57.833347,184.000000 1.000015,184.000000 
	C1.000010,123.000015 1.000010,62.000027 1.000005,1.000032 
	C92.666649,1.000021 184.333298,1.000021 275.999939,1.000010 
	C275.999969,61.999969 275.999969,122.999939 276.000000,183.999954 
	C241.500000,184.000000 207.000000,184.000000 172.000000,184.000000 
M155.500000,183.000000 
	C192.815048,182.999908 230.130112,183.004395 267.445160,182.995789 
	C274.875793,182.994080 274.994904,182.876022 274.995880,175.451447 
	C275.002930,120.145111 275.002991,64.838783 274.995819,9.532448 
	C274.994843,2.114881 274.883698,2.004354 267.429108,2.003849 
	C181.471069,1.998031 95.513031,1.998011 9.554997,2.003923 
	C2.124031,2.004434 2.004998,2.123739 2.004040,9.548375 
	C1.996902,64.854706 1.996853,120.161034 2.004122,175.467361 
	C2.005097,182.885117 2.116602,182.994751 9.570759,182.995911 
	C57.880505,183.003403 106.190254,182.999908 155.500000,183.000000 
z"/>
<path fill="#C60000" opacity="1.000000" stroke="none" 
	d="
M155.000000,183.000000 
	C106.190254,182.999908 57.880505,183.003403 9.570759,182.995911 
	C2.116602,182.994751 2.005097,182.885117 2.004122,175.467361 
	C1.996853,120.161034 1.996902,64.854706 2.004040,9.548375 
	C2.004998,2.123739 2.124031,2.004434 9.554997,2.003923 
	C95.513031,1.998011 181.471069,1.998031 267.429108,2.003849 
	C274.883698,2.004354 274.994843,2.114881 274.995819,9.532448 
	C275.002991,64.838783 275.002930,120.145111 274.995880,175.451447 
	C274.994904,182.876022 274.875793,182.994080 267.445160,182.995789 
	C230.130112,183.004395 192.815048,182.999908 155.000000,183.000000 
M37.667004,31.671831 
	C36.741558,29.037962 35.816109,26.404093 34.452793,22.524023 
	C32.746548,27.552710 31.139111,31.351530 30.212877,35.309753 
	C29.437815,38.621952 27.730158,39.505592 24.599566,39.334019 
	C20.629227,39.116421 16.637918,39.281399 12.655652,39.281399 
	C15.695324,42.812710 18.786449,45.316418 22.097166,47.484867 
	C24.543573,49.087212 25.392019,50.674870 24.213642,53.610672 
	C22.785131,57.169655 21.928076,60.958004 20.823753,64.647110 
	C21.169418,64.871933 21.515083,65.096756 21.860748,65.321579 
	C26.058809,62.485447 30.256868,59.649319 34.520561,56.768848 
	C38.936096,59.786053 43.196804,62.697460 48.712097,66.466148 
	C47.123566,61.150661 46.250561,57.266098 44.782707,53.621090 
	C43.597984,50.679169 44.413239,49.101280 46.874058,47.490459 
	C50.232086,45.292339 53.364185,42.749077 56.593140,40.353779 
	C53.228992,39.282337 50.233379,38.907387 47.369259,39.361588 
	C41.676273,40.264400 38.579659,38.139389 37.667004,31.671831 
M83.014214,32.716541 
	C81.502365,31.776398 79.990509,30.836252 78.902756,30.159830 
	C77.363579,31.274269 75.793465,32.411110 74.691727,33.208824 
	C75.232185,35.082409 75.765450,36.931046 76.166367,38.320885 
	C78.120438,38.320885 80.057289,38.320885 81.448433,38.320885 
	C82.174911,36.458443 82.858482,34.706020 83.014214,32.716541 
M80.274261,53.742062 
	C79.952789,53.027798 79.631317,52.313530 79.361595,51.714249 
	C77.525558,53.128525 75.876434,54.398819 74.720047,55.289566 
	C75.279518,57.160343 75.831535,59.006214 76.238930,60.368484 
	C78.075600,60.368484 79.871346,60.368484 81.567230,60.368484 
	C82.090919,58.812183 82.748619,56.857666 83.400505,54.920391 
	C82.582207,54.701115 81.634041,54.447041 80.274261,53.742062 
M72.456596,17.689014 
	C73.182930,16.739119 73.909256,15.789224 74.351433,15.210948 
	C72.493416,13.773116 70.962143,12.588140 69.961937,11.814127 
	C68.288589,12.918361 66.713600,13.957689 65.302956,14.888568 
	C65.863998,16.561943 66.478737,18.395485 67.022888,20.018461 
	C68.545029,20.113897 70.203545,20.317160 71.847282,20.232742 
	C72.156349,20.216869 72.406479,19.053167 72.456596,17.689014 
M66.222366,78.950485 
	C70.548897,80.127991 72.341576,77.328522 73.790962,74.228432 
	C72.221992,73.114326 70.664101,72.008087 69.241318,70.997787 
	C67.876648,71.933357 66.267509,73.036514 64.768356,74.064285 
	C65.131142,75.385201 65.558372,76.940750 66.222366,78.950485 
z"/>
<path fill="#FCF200" opacity="1.000000" stroke="none" 
	d="
M37.787231,32.054688 
	C38.579659,38.139389 41.676273,40.264400 47.369259,39.361588 
	C50.233379,38.907387 53.228992,39.282337 56.593140,40.353779 
	C53.364185,42.749077 50.232086,45.292339 46.874058,47.490459 
	C44.413239,49.101280 43.597984,50.679169 44.782707,53.621090 
	C46.250561,57.266098 47.123566,61.150661 48.712097,66.466148 
	C43.196804,62.697460 38.936096,59.786053 34.520561,56.768848 
	C30.256868,59.649319 26.058809,62.485447 21.860748,65.321579 
	C21.515083,65.096756 21.169418,64.871933 20.823753,64.647110 
	C21.928076,60.958004 22.785131,57.169655 24.213642,53.610672 
	C25.392019,50.674870 24.543573,49.087212 22.097166,47.484867 
	C18.786449,45.316418 15.695324,42.812710 12.655652,39.281399 
	C16.637918,39.281399 20.629227,39.116421 24.599566,39.334019 
	C27.730158,39.505592 29.437815,38.621952 30.212877,35.309753 
	C31.139111,31.351530 32.746548,27.552710 34.452793,22.524023 
	C35.816109,26.404093 36.741558,29.037962 37.787231,32.054688 
z"/>
<path fill="#F7DC00" opacity="1.000000" stroke="none" 
	d="
M83.278130,32.835068 
	C82.858482,34.706020 82.174911,36.458443 81.448433,38.320885 
	C80.057289,38.320885 78.120438,38.320885 76.166367,38.320885 
	C75.765450,36.931046 75.232185,35.082409 74.691727,33.208824 
	C75.793465,32.411110 77.363579,31.274269 78.902756,30.159830 
	C79.990509,30.836252 81.502365,31.776398 83.278130,32.835068 
z"/>
<path fill="#F7DC00" opacity="1.000000" stroke="none" 
	d="
M80.480072,53.967514 
	C81.634041,54.447041 82.582207,54.701115 83.400505,54.920391 
	C82.748619,56.857666 82.090919,58.812183 81.567230,60.368484 
	C79.871346,60.368484 78.075600,60.368484 76.238930,60.368484 
	C75.831535,59.006214 75.279518,57.160343 74.720047,55.289566 
	C75.876434,54.398819 77.525558,53.128525 79.361595,51.714249 
	C79.631317,52.313530 79.952789,53.027798 80.480072,53.967514 
z"/>
<path fill="#F5D300" opacity="1.000000" stroke="none" 
	d="
M72.570206,18.054073 
	C72.406479,19.053167 72.156349,20.216869 71.847282,20.232742 
	C70.203545,20.317160 68.545029,20.113897 67.022888,20.018461 
	C66.478737,18.395485 65.863998,16.561943 65.302956,14.888568 
	C66.713600,13.957689 68.288589,12.918361 69.961937,11.814127 
	C70.962143,12.588140 72.493416,13.773116 74.351433,15.210948 
	C73.909256,15.789224 73.182930,16.739119 72.570206,18.054073 
z"/>
<path fill="#F7DB00" opacity="1.000000" stroke="none" 
	d="
M66.103989,78.723389 
	C65.558372,76.940750 65.131142,75.385201 64.768356,74.064285 
	C66.267509,73.036514 67.876648,71.933357 69.241318,70.997787 
	C70.664101,72.008087 72.221992,73.114326 73.790962,74.228432 
	C72.341576,77.328522 70.548897,80.127991 66.103989,78.723389 
z"/>
</svg>