<svg version="1.1" id="Layer_1" xmlns="http://www.w3.org/2000/svg" xmlns:xlink="http://www.w3.org/1999/xlink" x="0px" y="0px"
	 width="100%" viewBox="0 0 800 486" enable-background="new 0 0 800 486" xml:space="preserve">
<path fill="#000000" opacity="1.000000" stroke="none" 
	d="
M1.000000,165.000000 
	C1.000000,111.979103 1.000000,58.958210 1.452198,5.387922 
	C267.108337,4.832488 532.312256,4.826216 797.516174,4.827813 
	C798.677429,4.827820 799.838745,4.940136 801.000000,5.000000 
	C801.000000,58.020893 801.000000,111.041786 800.537842,164.618393 
	C798.743347,165.193298 797.411011,165.229324 796.078674,165.229324 
	C535.211609,165.228271 274.344574,165.225693 13.477541,165.211975 
	C9.318356,165.211761 5.159180,165.073730 1.000000,165.000000 
z"/>
<path fill="#DB091C" opacity="1.000000" stroke="none" 
	d="
M1.000000,165.468658 
	C5.159180,165.073730 9.318356,165.211761 13.477541,165.211975 
	C274.344574,165.225693 535.211609,165.228271 796.078674,165.229324 
	C797.411011,165.229324 798.743347,165.193298 800.537842,165.087051 
	C801.000000,218.020889 801.000000,271.041779 800.531494,324.517944 
	C659.972900,324.969666 519.882751,324.960114 379.792633,324.964478 
	C253.528427,324.968384 127.264214,324.987549 1.000000,325.000000 
	C1.000000,271.979095 1.000000,218.958206 1.000000,165.468658 
z"/>
<path fill="#FFCE0F" opacity="1.000000" stroke="none" 
	d="
M679.000000,487.000000 
	C453.116974,487.000000 227.233932,487.000000 1.000000,487.000000 
	C1.000000,433.645172 1.000000,380.289551 1.465889,326.523560 
	C3.264279,326.124481 4.596780,326.145782 5.929282,326.145782 
	C255.296936,326.146606 504.664581,326.148590 754.032227,326.139160 
	C769.688171,326.138550 785.344055,326.048462 801.000000,326.000000 
	C801.000000,376.022003 801.000000,426.044037 800.631592,476.535522 
	C799.526001,476.988281 798.788879,476.971527 797.770264,476.915314 
	C797.128784,476.990997 796.768677,477.106140 796.004395,477.167847 
	C792.621643,477.520660 789.215576,479.168976 788.302490,473.984772 
	C785.627747,475.505219 783.409058,476.766388 781.190430,478.027588 
	C781.215881,477.739319 781.241333,477.451080 781.266785,477.162811 
	C778.105530,477.162811 774.944275,477.162811 771.576416,477.177856 
	C771.369812,477.192871 770.961853,477.265015 770.675964,477.333862 
	C769.698730,478.054443 769.007385,478.706177 767.998474,479.281494 
	C767.464661,479.196381 767.248352,479.187592 766.782959,479.120697 
	C766.365173,479.038147 766.196472,479.013733 765.782104,478.740662 
	C762.175415,476.580902 758.561890,477.337524 754.593933,477.476257 
	C753.971619,477.632599 753.760376,477.807709 753.266235,477.989502 
	C749.587280,477.713379 746.191162,477.430603 742.442566,477.091858 
	C741.378540,477.001404 740.666992,476.966888 739.579346,476.958740 
	C738.710083,477.071106 738.216797,477.157074 737.459656,477.160950 
	C736.619385,477.401672 736.042908,477.724487 735.074280,478.041992 
	C734.421326,478.056915 734.160645,478.077087 733.710083,477.898926 
	C732.770935,477.782928 732.021790,477.865265 731.147217,477.616150 
	C728.720337,475.583069 726.472107,473.539978 724.707397,477.972870 
	C724.367615,478.826416 722.929626,479.242706 721.738892,479.873840 
	C721.306702,479.880737 721.133728,479.874512 720.727417,479.652771 
	C719.672363,479.302460 718.850586,479.167633 717.732544,478.999084 
	C717.040527,479.004242 716.644775,479.043091 715.887939,479.054871 
	C715.286865,479.033600 715.046875,479.039337 714.612671,479.012451 
	C714.418457,478.979858 714.070496,478.795227 713.861816,478.523895 
	C712.596313,478.427948 711.539429,478.603302 710.156677,478.812683 
	C709.560120,478.576630 709.289429,478.306549 708.972290,477.827209 
	C708.925903,477.617889 708.934631,477.188995 708.752869,476.904510 
	C706.631897,477.487396 704.692688,478.354797 702.860291,479.105591 
	C702.967163,478.988983 702.763611,479.226929 702.547241,478.886719 
	C700.558105,478.362427 698.786499,478.165039 697.012146,477.996979 
	C693.327393,477.647919 689.467041,477.894958 685.992188,476.852570 
	C678.987000,474.751099 676.296753,476.262085 675.480835,482.650299 
	C677.049072,484.588654 678.024536,485.794312 679.000000,487.000000 
z"/>
<path fill="#E8E8E8" opacity="1.000000" stroke="none" 
	d="
M801.000000,4.500123 
	C799.838745,4.940136 798.677429,4.827820 797.516174,4.827813 
	C532.312256,4.826216 267.108337,4.832488 1.452198,4.919265 
	C1.000000,3.667492 1.000000,2.334984 1.000000,1.001857 
	C267.666656,1.001238 534.333313,1.001238 801.000000,1.001676 
	C801.000000,2.001491 801.000000,3.000868 801.000000,4.500123 
z"/>
<path fill="#B32100" opacity="1.000000" stroke="none" 
	d="
M801.000000,325.750000 
	C785.344055,326.048462 769.688171,326.138550 754.032227,326.139160 
	C504.664581,326.148590 255.296936,326.146606 5.929282,326.145782 
	C4.596780,326.145782 3.264279,326.124481 1.465889,326.056580 
	C1.000000,326.000000 1.000000,325.500000 1.000000,325.250000 
	C127.264214,324.987549 253.528427,324.968384 379.792633,324.964478 
	C519.882751,324.960114 659.972900,324.969666 800.531494,324.986572 
	C801.000000,325.000000 801.000000,325.500000 801.000000,325.750000 
z"/>
<path fill="#F0C92A" opacity="1.000000" stroke="none" 
	d="
M721.998169,479.860718 
	C722.929626,479.242706 724.367615,478.826416 724.707397,477.972870 
	C726.472107,473.539978 728.720337,475.583069 731.105774,477.653931 
	C731.189636,478.023163 731.083862,478.041901 730.675903,478.043030 
	C726.317322,478.726471 728.669434,481.860413 728.118652,483.847198 
	C728.078796,483.990997 729.371765,484.504272 730.291992,484.817352 
	C730.928284,484.482056 731.317688,484.175171 731.965576,483.824707 
	C732.483398,483.557861 732.742798,483.334564 733.220825,483.267090 
	C733.609375,483.479279 733.779236,483.535614 734.108582,483.761566 
	C734.268127,483.931183 734.729065,483.993347 734.729065,483.993347 
	C734.729065,483.993347 735.194153,483.989716 735.499023,484.028168 
	C736.578735,484.345642 737.353455,484.624664 738.411987,484.901245 
	C739.155518,484.607056 739.615356,484.315247 740.266968,484.027374 
	C740.458679,484.031281 740.842163,484.037079 741.052246,484.283142 
	C742.539062,483.590118 743.815796,482.651001 745.387817,481.585876 
	C744.809875,480.943848 743.936523,480.427856 742.996460,479.569458 
	C742.884888,478.533997 742.839905,477.840942 742.794983,477.147827 
	C746.191162,477.430603 749.587280,477.713379 753.392090,478.250519 
	C754.046875,478.796478 754.292969,479.088043 754.639404,479.702881 
	C754.052185,481.644562 753.364563,483.263000 752.435181,485.450531 
	C754.475769,484.602325 756.206177,483.883057 758.242798,483.263672 
	C759.673950,483.562531 760.798950,483.761475 761.923889,483.960419 
	C762.058472,482.890289 762.589172,481.633789 762.201233,480.809570 
	C761.895874,480.160919 760.482117,479.907745 759.515076,479.736603 
	C758.734375,479.598389 757.885559,479.844727 756.806641,479.845154 
	C756.131653,479.419403 755.716980,479.068939 755.237549,478.410309 
	C755.116943,477.899780 755.061035,477.697449 755.005066,477.495087 
	C758.561890,477.337524 762.175415,476.580902 765.461792,478.818115 
	C765.547791,480.429596 765.708374,481.714966 765.901123,483.340637 
	C766.610962,484.096100 767.288696,484.511230 768.342285,484.958374 
	C769.466309,484.918335 770.214478,484.846283 771.315002,484.815491 
	C772.139709,484.877075 772.612000,484.897339 773.441040,484.967041 
	C774.517395,484.988953 775.237000,484.961487 776.296875,484.884949 
	C776.337646,482.936218 776.038147,481.036560 775.411621,479.097534 
	C774.432434,479.085815 773.780212,479.113495 772.838074,479.005829 
	C772.293091,478.301270 772.038086,477.732025 771.783081,477.162781 
	C774.944275,477.162811 778.105530,477.162811 781.266785,477.162811 
	C781.241333,477.451080 781.215881,477.739319 781.190430,478.027588 
	C783.409058,476.766388 785.627747,475.505219 788.302490,473.984772 
	C789.215576,479.168976 792.621643,477.520660 795.904663,477.513733 
	C795.958923,478.812225 795.708740,479.711426 795.670959,479.847198 
	C792.859924,479.572998 790.476074,479.340485 787.853210,478.993225 
	C787.220886,478.826538 786.827515,478.774597 786.434143,478.722656 
	C786.618225,479.179565 786.802307,479.636475 786.939941,480.397644 
	C786.924194,481.109985 786.954895,481.518036 786.778198,482.101440 
	C786.945557,482.868103 787.320251,483.459351 787.864258,484.336548 
	C788.355713,485.415009 788.677856,486.207520 789.000000,487.000000 
	C752.645752,487.000000 716.291565,487.000000 679.468628,487.000000 
	C678.024536,485.794312 677.049072,484.588654 675.480835,482.650299 
	C676.296753,476.262085 678.987000,474.751099 685.992188,476.852570 
	C689.467041,477.894958 693.327393,477.647919 697.012146,477.996979 
	C698.786499,478.165039 700.558105,478.362427 702.197754,478.812866 
	C695.939392,478.994537 699.143372,482.437042 700.229797,484.955048 
	C701.114746,484.955505 701.620361,484.936462 702.445801,484.714935 
	C702.761597,482.749023 702.757507,480.985565 702.753418,479.222168 
	C704.692688,478.354797 706.631897,477.487396 708.419067,476.847107 
	C707.538757,478.033203 706.810425,478.992188 706.063110,480.356354 
	C706.145508,483.434479 705.918396,486.522339 710.352600,484.003815 
	C710.571350,484.007263 711.008789,483.996979 711.138672,484.210571 
	C711.509277,484.678040 711.804321,484.816437 712.483643,484.914612 
	C713.569458,484.661987 714.325073,484.334167 715.378662,484.104767 
	C716.460815,484.427460 717.244995,484.651733 718.267700,484.893311 
	C718.506287,484.910645 718.985535,484.900909 719.284790,484.925812 
	C719.980286,484.899445 720.376404,484.848206 721.093567,484.602814 
	C721.609070,482.892670 721.803650,481.376678 721.998169,479.860718 
M686.836243,479.334900 
	C686.283508,479.323822 685.730774,479.312744 684.525391,479.268097 
	C684.308289,479.249939 684.091248,479.231750 683.213989,479.021545 
	C682.984924,479.015778 682.755798,479.010040 682.014160,478.642853 
	C681.383484,479.962585 680.752808,481.282288 680.122070,482.601959 
	C680.982849,482.718292 681.843689,482.834625 683.117493,483.399231 
	C683.755920,483.856018 684.394287,484.312775 685.582397,484.614685 
	C685.769165,484.078003 685.955933,483.541290 686.626038,482.741486 
	C686.748291,481.795288 686.870544,480.849091 686.836243,479.334900 
M779.880066,481.220520 
	C779.766663,481.111755 779.666321,480.942566 779.535583,480.914307 
	C779.439758,480.893585 779.202271,481.057861 779.202209,481.139923 
	C779.201355,481.773560 779.243103,482.407257 779.271606,483.040955 
	C779.423767,483.040131 779.575928,483.039276 779.728088,483.038422 
	C779.815979,482.604675 779.903931,482.170898 779.880066,481.220520 
z"/>
<path fill="#765306" opacity="1.000000" stroke="none" 
	d="
M789.333252,487.000000 
	C788.677856,486.207520 788.355713,485.415009 787.906372,484.023132 
	C787.514587,482.924561 787.250061,482.425323 786.985535,481.926086 
	C786.954895,481.518036 786.924194,481.109985 787.186035,480.305237 
	C787.683105,479.641663 787.887634,479.374786 788.092163,479.107910 
	C790.476074,479.340485 792.859924,479.572998 795.670959,479.847198 
	C795.708740,479.711426 795.958923,478.812225 796.308838,477.567169 
	C796.768677,477.106140 797.128784,476.990997 797.871948,477.267670 
	C798.911194,479.806915 799.567444,481.954315 800.207397,484.048401 
	C796.051086,482.814270 793.309937,484.227692 791.000000,487.000000 
	C790.555542,487.000000 790.111084,487.000000 789.333252,487.000000 
z"/>
<path fill="#F0C92A" opacity="1.000000" stroke="none" 
	d="
M791.486572,487.000000 
	C793.309937,484.227692 796.051086,482.814270 800.207397,484.048401 
	C799.567444,481.954315 798.911194,479.806915 798.153320,477.307129 
	C798.788879,476.971527 799.526001,476.988281 800.631592,477.002502 
	C801.000000,480.252441 801.000000,483.504913 801.000000,487.000000 
	C797.993408,487.000000 794.983276,487.000000 791.486572,487.000000 
z"/>
<path fill="#A2810E" opacity="1.000000" stroke="none" 
	d="
M742.442566,477.091888 
	C742.839905,477.840942 742.884888,478.533997 742.809143,479.738708 
	C743.489807,480.737488 744.291138,481.224701 745.092468,481.711914 
	C743.815796,482.651001 742.539062,483.590118 741.099487,483.955017 
	C740.669739,482.595520 740.402954,481.810242 739.851318,480.994232 
	C739.375488,480.963501 739.184448,480.963501 739.025146,480.618652 
	C739.356384,479.160004 739.655884,478.046204 739.955383,476.932373 
	C740.666992,476.966888 741.378540,477.001404 742.442566,477.091888 
z"/>
<path fill="#A2810E" opacity="1.000000" stroke="none" 
	d="
M771.576416,477.177826 
	C772.038086,477.732025 772.293091,478.301270 773.032837,479.283691 
	C776.648621,481.709015 774.606750,483.291748 773.084351,484.917633 
	C772.612000,484.897339 772.139709,484.877075 771.322144,484.399536 
	C770.971985,481.716522 770.966919,479.490784 770.961853,477.265015 
	C770.961853,477.265015 771.369812,477.192871 771.576416,477.177826 
z"/>
<path fill="#967303" opacity="1.000000" stroke="none" 
	d="
M770.675964,477.333862 
	C770.966919,479.490784 770.971985,481.716522 770.969849,484.358276 
	C770.214478,484.846283 769.466309,484.918335 768.372192,484.685760 
	C768.015869,484.198456 768.005554,484.015839 768.021179,483.453613 
	C768.136719,481.835327 768.226379,480.596619 768.316040,479.357910 
	C769.007385,478.706177 769.698730,478.054443 770.675964,477.333862 
z"/>
<path fill="#A2810E" opacity="1.000000" stroke="none" 
	d="
M718.029175,484.876038 
	C717.244995,484.651733 716.460815,484.427460 715.079956,484.041687 
	C714.281921,483.850952 714.080627,483.821716 713.928345,483.436829 
	C713.949341,482.128754 713.921204,481.176361 714.198730,480.170288 
	C714.706055,480.070312 714.907715,480.024048 715.337280,479.882660 
	C715.857666,479.614899 716.085632,479.379700 716.249084,479.081909 
	C716.644775,479.043091 717.040527,479.004242 717.702515,479.354614 
	C717.980286,479.981415 717.991760,480.219025 718.028320,480.822784 
	C718.045349,482.417999 718.037231,483.647003 718.029175,484.876038 
z"/>
<path fill="#967303" opacity="1.000000" stroke="none" 
	d="
M731.707153,483.868286 
	C731.317688,484.175171 730.928284,484.482056 730.266052,484.438599 
	C730.356812,482.072815 730.720337,480.057343 731.083862,478.041901 
	C731.083862,478.041901 731.189636,478.023163 731.231079,477.985382 
	C732.021790,477.865265 732.770935,477.782928 733.719727,478.230042 
	C733.885864,479.201416 733.852417,479.643341 733.637573,480.068420 
	C733.456116,480.051544 733.095825,479.995850 732.776123,480.164490 
	C732.206726,481.511505 731.956970,482.689911 731.707153,483.868286 
z"/>
<path fill="#765306" opacity="1.000000" stroke="none" 
	d="
M735.194153,483.989716 
	C735.194153,483.989716 734.729065,483.993347 734.729065,483.993347 
	C734.729065,483.993347 734.268127,483.931183 734.110474,483.350220 
	C733.984253,482.497284 734.015625,482.225250 734.353516,481.768646 
	C734.928833,480.405151 735.197632,479.226227 735.466431,478.047302 
	C736.042908,477.724487 736.619385,477.401672 737.522888,477.553375 
	C737.910034,479.370026 737.970093,480.712219 737.752563,481.948883 
	C737.150208,481.197754 736.825562,480.552124 736.446106,479.797668 
	C735.987793,481.332306 735.591003,482.661011 735.194153,483.989716 
z"/>
<path fill="#A2810E" opacity="1.000000" stroke="none" 
	d="
M765.869019,483.000336 
	C765.708374,481.714966 765.547791,480.429596 765.707458,479.066772 
	C766.196472,479.013733 766.365173,479.038147 766.786804,479.512573 
	C766.972717,481.018494 766.905762,482.074402 766.596436,483.097046 
	C766.354065,483.063782 765.869019,483.000336 765.869019,483.000336 
z"/>
<path fill="#E5C255" opacity="1.000000" stroke="none" 
	d="
M738.030151,482.054382 
	C737.970093,480.712219 737.910034,479.370026 737.786743,477.635437 
	C738.216797,477.157074 738.710083,477.071106 739.579346,476.958740 
	C739.655884,478.046204 739.356384,479.160004 738.899414,480.831726 
	C738.543518,481.666229 738.284180,481.862091 737.981689,481.995453 
	C737.999573,482.013611 738.030151,482.054382 738.030151,482.054382 
z"/>
<path fill="#F0C92A" opacity="1.000000" stroke="none" 
	d="
M710.482544,478.778687 
	C711.539429,478.603302 712.596313,478.427948 713.539795,478.574036 
	C712.904419,479.232239 712.382324,479.568909 711.649414,479.913818 
	C711.438599,479.922089 711.020691,479.983124 711.015381,480.002838 
	C711.010010,480.022552 711.052612,480.031219 711.055847,479.790009 
	C710.923950,479.249390 710.731750,478.992676 710.482544,478.778687 
z"/>
<path fill="#523000" opacity="1.000000" stroke="none" 
	d="
M718.003174,480.456604 
	C717.991760,480.219025 717.980286,479.981415 717.998901,479.388306 
	C718.850586,479.167633 719.672363,479.302460 720.609009,479.883423 
	C720.661926,480.490234 720.599854,480.650940 720.304321,480.816040 
	C719.768372,480.904602 719.460205,480.945068 719.033447,480.708649 
	C718.614807,480.469177 718.309021,480.462891 718.003174,480.456604 
z"/>
<path fill="#523000" opacity="1.000000" stroke="none" 
	d="
M710.156677,478.812714 
	C710.731750,478.992676 710.923950,479.249390 710.796631,479.843719 
	C710.318298,480.404205 710.102295,480.669769 709.657715,480.808838 
	C709.304077,480.186066 709.178955,479.689758 709.308838,478.893219 
	C709.392761,478.393677 709.221741,478.194397 709.026611,477.993347 
	C709.002502,477.991577 709.018738,478.036499 709.018738,478.036499 
	C709.289429,478.306549 709.560120,478.576630 710.156677,478.812714 
z"/>
<path fill="#E5C255" opacity="1.000000" stroke="none" 
	d="
M766.838745,483.130310 
	C766.905762,482.074402 766.972717,481.018494 767.035889,479.570679 
	C767.248352,479.187592 767.464661,479.196381 767.998535,479.281525 
	C768.226379,480.596619 768.136719,481.835327 767.765320,483.476257 
	C767.268677,483.629089 767.053711,483.379700 766.838745,483.130310 
z"/>
<path fill="#664201" opacity="1.000000" stroke="none" 
	d="
M706.082092,479.951172 
	C706.810425,478.992188 707.538757,478.033203 708.600830,477.131592 
	C708.934631,477.188995 708.925903,477.617889 708.972290,477.827209 
	C709.018738,478.036499 709.002502,477.991577 708.751526,478.020569 
	C708.392639,478.363037 708.284729,478.676575 708.027954,479.277405 
	C707.280151,479.693512 706.681091,479.822327 706.082092,479.951172 
z"/>
<path fill="#E5C255" opacity="1.000000" stroke="none" 
	d="
M720.537720,480.811615 
	C720.599854,480.650940 720.661926,480.490234 720.842346,480.098907 
	C721.133728,479.874512 721.306702,479.880737 721.738892,479.873840 
	C721.803650,481.376678 721.609070,482.892670 721.136719,484.207275 
	C720.751831,482.941101 720.644775,481.876373 720.537720,480.811615 
z"/>
<path fill="#664201" opacity="1.000000" stroke="none" 
	d="
M711.860291,479.905579 
	C712.382324,479.568909 712.904419,479.232239 713.748474,478.845398 
	C714.070496,478.795227 714.418457,478.979858 714.679016,479.248840 
	C714.939575,479.517853 715.109375,479.977783 715.109375,479.977783 
	C714.907715,480.024048 714.706055,480.070312 713.962280,480.157471 
	C713.116394,480.332092 712.901489,480.552521 712.581055,480.747009 
	C712.184448,480.410736 712.008972,480.167816 711.860291,479.905579 
z"/>
<path fill="#E5C255" opacity="1.000000" stroke="none" 
	d="
M735.074219,478.041992 
	C735.197632,479.226227 734.928833,480.405151 734.333618,481.454895 
	C733.944458,480.912231 733.881714,480.498779 733.818970,480.085297 
	C733.852417,479.643341 733.885864,479.201416 733.909668,478.428345 
	C734.160645,478.077087 734.421326,478.056915 735.074219,478.041992 
z"/>
<path fill="#F0C92A" opacity="1.000000" stroke="none" 
	d="
M715.337280,479.882660 
	C715.109375,479.977783 714.939575,479.517853 714.873291,479.281464 
	C715.046875,479.039337 715.286865,479.033600 715.887939,479.054871 
	C716.085632,479.379700 715.857666,479.614899 715.337280,479.882660 
z"/>
<path fill="#967303" opacity="1.000000" stroke="none" 
	d="
M754.593933,477.476257 
	C755.061035,477.697449 755.116943,477.899780 755.047852,478.577820 
	C754.794922,479.162201 754.666992,479.270905 754.539124,479.379578 
	C754.292969,479.088043 754.046875,478.796478 753.674927,478.243896 
	C753.760376,477.807709 753.971619,477.632599 754.593933,477.476257 
z"/>
<path fill="#E5C255" opacity="1.000000" stroke="none" 
	d="
M757.066895,479.920471 
	C757.885559,479.844727 758.734375,479.598389 759.515076,479.736603 
	C760.482117,479.907745 761.895874,480.160919 762.201233,480.809570 
	C762.589172,481.633789 762.058472,482.890289 761.923889,483.960419 
	C760.798950,483.761475 759.673950,483.562531 757.951050,483.167542 
	C757.257751,481.954468 757.162354,480.937469 757.066895,479.920471 
z"/>
<path fill="#A2810E" opacity="1.000000" stroke="none" 
	d="
M706.063110,480.356323 
	C706.681091,479.822327 707.280151,479.693512 708.251831,479.306427 
	C708.624451,479.048126 709.053833,479.193481 709.053833,479.193481 
	C709.178955,479.689758 709.304077,480.186066 709.712036,481.189697 
	C710.041138,482.464813 710.087524,483.232605 710.133850,484.000366 
	C705.918396,486.522339 706.145508,483.434479 706.063110,480.356323 
z"/>
<path fill="#E5C255" opacity="1.000000" stroke="none" 
	d="
M730.675903,478.043030 
	C730.720337,480.057343 730.356812,482.072815 730.019165,484.467010 
	C729.371765,484.504272 728.078796,483.990997 728.118652,483.847198 
	C728.669434,481.860413 726.317322,478.726471 730.675903,478.043030 
z"/>
<path fill="#E5C255" opacity="1.000000" stroke="none" 
	d="
M682.704468,482.950989 
	C681.843689,482.834625 680.982849,482.718292 680.122070,482.601990 
	C680.752808,481.282288 681.383484,479.962585 682.427979,479.189056 
	C682.953552,480.785248 683.065369,481.835205 683.055237,482.874573 
	C682.933289,482.863983 682.704468,482.950989 682.704468,482.950989 
z"/>
<path fill="#664201" opacity="1.000000" stroke="none" 
	d="
M702.860291,479.105560 
	C702.757507,480.985565 702.761597,482.749023 702.409241,484.328705 
	C701.879639,482.882416 701.706482,481.619904 701.533386,480.357361 
	C701.146912,480.383026 700.760437,480.408691 700.373962,480.434357 
	C700.199463,481.934753 700.024963,483.435150 699.850464,484.935547 
	C699.143372,482.437042 695.939392,478.994537 702.414124,479.153076 
	C702.763611,479.226929 702.967163,478.988983 702.860291,479.105560 
z"/>
<path fill="#967303" opacity="1.000000" stroke="none" 
	d="
M756.806641,479.845154 
	C757.162354,480.937469 757.257751,481.954468 757.644897,483.067627 
	C756.206177,483.883057 754.475769,484.602325 752.435181,485.450531 
	C753.364563,483.263000 754.052185,481.644562 754.639404,479.702850 
	C754.666992,479.270905 754.794922,479.162201 755.112549,478.885986 
	C755.716980,479.068939 756.131653,479.419403 756.806641,479.845154 
z"/>
<path fill="#E5C255" opacity="1.000000" stroke="none" 
	d="
M700.229797,484.955048 
	C700.024963,483.435150 700.199463,481.934753 700.373962,480.434357 
	C700.760437,480.408691 701.146912,480.383026 701.533386,480.357361 
	C701.706482,481.619904 701.879639,482.882416 702.089355,484.531189 
	C701.620361,484.936462 701.114746,484.955505 700.229797,484.955048 
z"/>
<path fill="#523000" opacity="1.000000" stroke="none" 
	d="
M773.441040,484.967041 
	C774.606750,483.291748 776.648621,481.709015 773.322876,479.419067 
	C773.780212,479.113495 774.432434,479.085815 775.482422,479.504700 
	C775.905762,481.612213 775.931213,483.273102 775.956665,484.934021 
	C775.237000,484.961487 774.517395,484.988953 773.441040,484.967041 
z"/>
<path fill="#E5C255" opacity="1.000000" stroke="none" 
	d="
M735.499023,484.028168 
	C735.591003,482.661011 735.987793,481.332306 736.446106,479.797668 
	C736.825562,480.552124 737.150208,481.197754 737.752563,481.948883 
	C738.030151,482.054382 737.999573,482.013611 737.975464,482.362427 
	C738.010254,483.442047 738.069275,484.172882 738.128235,484.903687 
	C737.353455,484.624664 736.578735,484.345642 735.499023,484.028168 
z"/>
<path fill="#E5C255" opacity="1.000000" stroke="none" 
	d="
M776.296875,484.884949 
	C775.931213,483.273102 775.905762,481.612213 775.809448,479.544098 
	C776.038147,481.036560 776.337646,482.936218 776.296875,484.884949 
z"/>
<path fill="#A2810E" opacity="1.000000" stroke="none" 
	d="
M720.304321,480.816040 
	C720.644775,481.876373 720.751831,482.941101 720.815735,484.401428 
	C720.376404,484.848206 719.980286,484.899445 719.278931,484.530701 
	C719.031189,483.054413 719.088745,481.998138 719.146240,480.941864 
	C719.460205,480.945068 719.768372,480.904602 720.304321,480.816040 
z"/>
<path fill="#664201" opacity="1.000000" stroke="none" 
	d="
M738.411987,484.901245 
	C738.069275,484.172882 738.010254,483.442047 737.957581,482.344269 
	C738.284180,481.862091 738.543518,481.666229 738.867737,481.176575 
	C739.184448,480.963501 739.375488,480.963501 739.813721,481.368225 
	C740.065674,482.523132 740.070435,483.273315 740.075195,484.023468 
	C739.615356,484.315247 739.155518,484.607056 738.411987,484.901245 
z"/>
<path fill="#A2810E" opacity="1.000000" stroke="none" 
	d="
M685.032715,484.769531 
	C684.394287,484.312775 683.755920,483.856018 682.911011,483.175110 
	C682.704468,482.950989 682.933289,482.863983 683.276245,482.641174 
	C683.704224,481.350098 683.789185,480.281830 683.874146,479.213562 
	C684.091248,479.231750 684.308289,479.249939 684.853699,479.542603 
	C685.176147,480.160431 685.170288,480.503723 685.127808,481.239655 
	C685.071655,482.678040 685.052185,483.723785 685.032715,484.769531 
z"/>
<path fill="#664201" opacity="1.000000" stroke="none" 
	d="
M745.387817,481.585876 
	C744.291138,481.224701 743.489807,480.737488 742.875793,480.081055 
	C743.936523,480.427856 744.809875,480.943848 745.387817,481.585876 
z"/>
<path fill="#E5C255" opacity="1.000000" stroke="none" 
	d="
M719.033447,480.708649 
	C719.088745,481.998138 719.031189,483.054413 718.979614,484.505798 
	C718.985535,484.900909 718.506287,484.910645 718.267700,484.893341 
	C718.037231,483.647003 718.045349,482.417999 718.028320,480.822784 
	C718.309021,480.462891 718.614807,480.469177 719.033447,480.708649 
z"/>
<path fill="#E5C255" opacity="1.000000" stroke="none" 
	d="
M779.935913,481.478821 
	C779.903931,482.170898 779.815979,482.604675 779.728088,483.038422 
	C779.575928,483.039276 779.423767,483.040131 779.271606,483.040955 
	C779.243103,482.407257 779.201355,481.773560 779.202209,481.139923 
	C779.202271,481.057861 779.439758,480.893585 779.535583,480.914307 
	C779.666321,480.942566 779.766663,481.111755 779.935913,481.478821 
z"/>
<path fill="#967303" opacity="1.000000" stroke="none" 
	d="
M685.307556,484.692108 
	C685.052185,483.723785 685.071655,482.678040 685.286926,481.288269 
	C685.482727,480.944214 685.812073,481.001373 685.873230,481.333984 
	C686.003845,482.112610 686.073303,482.558624 686.142761,483.004608 
	C685.955933,483.541290 685.769165,484.078003 685.307556,484.692108 
z"/>
<path fill="#664201" opacity="1.000000" stroke="none" 
	d="
M713.879272,483.792450 
	C714.080627,483.821716 714.281921,483.850952 714.781982,483.943298 
	C714.325073,484.334167 713.569458,484.661987 712.458008,484.711884 
	C712.102234,484.433990 711.984497,484.040161 712.073853,483.854889 
	C712.297791,483.412720 712.503601,483.241394 712.905457,483.352417 
	C713.030273,483.549133 713.413452,483.814911 713.413452,483.814911 
	C713.413452,483.814911 713.879272,483.792450 713.879272,483.792450 
z"/>
<path fill="#E5C255" opacity="1.000000" stroke="none" 
	d="
M786.778198,482.101440 
	C787.250061,482.425323 787.514587,482.924561 787.737061,483.737183 
	C787.320251,483.459351 786.945557,482.868103 786.778198,482.101440 
z"/>
<path fill="#E5C255" opacity="1.000000" stroke="none" 
	d="
M731.965576,483.824738 
	C731.956970,482.689911 732.206726,481.511505 732.751587,480.552429 
	C733.031921,481.551575 733.017090,482.331421 733.002258,483.111237 
	C732.742798,483.334564 732.483398,483.557861 731.965576,483.824738 
z"/>
<path fill="#E5C255" opacity="1.000000" stroke="none" 
	d="
M710.352600,484.003815 
	C710.087524,483.232605 710.041138,482.464813 709.940552,481.316162 
	C710.102295,480.669769 710.318298,480.404205 710.793457,480.084930 
	C711.052612,480.031219 711.010010,480.022552 711.003906,480.393921 
	C711.039551,481.802612 711.081360,482.839905 711.094238,483.906799 
	C711.065308,483.936401 711.008789,483.996979 711.008789,483.996979 
	C711.008789,483.996979 710.571350,484.007263 710.352600,484.003815 
z"/>
<path fill="#E5C255" opacity="1.000000" stroke="none" 
	d="
M686.384399,482.873047 
	C686.073303,482.558624 686.003845,482.112610 685.994507,481.080109 
	C686.367310,480.296692 686.679993,480.099792 686.992737,479.902893 
	C686.870544,480.849091 686.748291,481.795288 686.384399,482.873047 
z"/>
<path fill="#664201" opacity="1.000000" stroke="none" 
	d="
M683.544067,479.117554 
	C683.789185,480.281830 683.704224,481.350098 683.398193,482.651794 
	C683.065369,481.835205 682.953552,480.785248 682.684265,479.369781 
	C682.755798,479.010040 682.984924,479.015778 683.544067,479.117554 
z"/>
<path fill="#523000" opacity="1.000000" stroke="none" 
	d="
M733.220825,483.267090 
	C733.017090,482.331421 733.031921,481.551575 733.071289,480.383789 
	C733.095825,479.995850 733.456116,480.051544 733.637573,480.068420 
	C733.881714,480.498779 733.944458,480.912231 734.027100,481.639465 
	C734.015625,482.225250 733.984253,482.497284 733.950928,483.180603 
	C733.779236,483.535614 733.609375,483.479279 733.220825,483.267090 
z"/>
<path fill="#523000" opacity="1.000000" stroke="none" 
	d="
M766.596436,483.097046 
	C767.053711,483.379700 767.268677,483.629089 767.739441,483.855835 
	C768.005554,484.015839 768.015869,484.198456 767.996338,484.653748 
	C767.288696,484.511230 766.610962,484.096100 765.901123,483.340637 
	C765.869019,483.000336 766.354065,483.063782 766.596436,483.097046 
z"/>
<path fill="#523000" opacity="1.000000" stroke="none" 
	d="
M686.914490,479.618896 
	C686.679993,480.099792 686.367310,480.296692 685.933350,480.747498 
	C685.812073,481.001373 685.482727,480.944214 685.323608,480.895630 
	C685.170288,480.503723 685.176147,480.160431 685.180054,479.559387 
	C685.730774,479.312744 686.283508,479.323822 686.914490,479.618896 
z"/>
<path fill="#E5C255" opacity="1.000000" stroke="none" 
	d="
M787.853210,478.993195 
	C787.887634,479.374786 787.683105,479.641663 787.232483,480.000977 
	C786.802307,479.636475 786.618225,479.179565 786.434143,478.722656 
	C786.827515,478.774597 787.220886,478.826538 787.853210,478.993195 
z"/>
<path fill="#E5C255" opacity="1.000000" stroke="none" 
	d="
M740.266968,484.027374 
	C740.070435,483.273315 740.065674,482.523132 740.098511,481.398987 
	C740.402954,481.810242 740.669739,482.595520 740.889404,483.708923 
	C740.842163,484.037079 740.458679,484.031281 740.266968,484.027374 
z"/>
<path fill="#E5C255" opacity="1.000000" stroke="none" 
	d="
M711.984497,484.040161 
	C711.984497,484.040161 712.102234,484.433990 712.127869,484.636719 
	C711.804321,484.816437 711.509277,484.678040 711.138672,484.210571 
	C711.008789,483.996979 711.065308,483.936401 711.309570,483.946411 
	C711.553833,483.956390 711.984497,484.040161 711.984497,484.040161 
z"/>
<path fill="#E5C255" opacity="1.000000" stroke="none" 
	d="
M713.928345,483.436829 
	C713.879272,483.792450 713.413452,483.814911 713.413452,483.814911 
	C713.413452,483.814911 713.030273,483.549133 712.923218,482.969849 
	C712.802612,481.880249 712.789124,481.369934 712.775635,480.859650 
	C712.901489,480.552521 713.116394,480.332092 713.656616,480.211151 
	C713.921204,481.176361 713.949341,482.128754 713.928345,483.436829 
z"/>
<path fill="#A2810E" opacity="1.000000" stroke="none" 
	d="
M712.581116,480.747009 
	C712.789124,481.369934 712.802612,481.880249 712.798340,482.773102 
	C712.503601,483.241394 712.297791,483.412720 712.073853,483.854889 
	C711.984497,484.040161 711.553833,483.956390 711.338501,483.916809 
	C711.081360,482.839905 711.039551,481.802612 711.009216,480.374207 
	C711.020691,479.983124 711.438599,479.922089 711.649414,479.913818 
	C712.008972,480.167816 712.184448,480.410736 712.581116,480.747009 
z"/>
<path fill="#F0C92A" opacity="1.000000" stroke="none" 
	d="
M709.308838,478.893219 
	C709.053833,479.193481 708.624451,479.048126 708.400635,479.019104 
	C708.284729,478.676575 708.392639,478.363037 708.775635,478.022308 
	C709.221741,478.194397 709.392761,478.393677 709.308838,478.893219 
z"/>
</svg>