<svg version="1.1" id="Layer_1" xmlns="http://www.w3.org/2000/svg" xmlns:xlink="http://www.w3.org/1999/xlink" x="0px" y="0px"
	 width="100%" viewBox="0 0 800 480" enable-background="new 0 0 800 480" xml:space="preserve">
<path fill="#C8102E" opacity="1.000000" stroke="none" 
	d="
M353.000000,1.000000 
	C384.687561,1.000000 416.375122,1.000000 448.531342,1.468657 
	C449.000000,65.531693 449.000000,129.126068 449.000000,193.000000 
	C566.731201,193.000000 683.865601,193.000000 801.000000,193.000000 
	C801.000000,224.687561 801.000000,256.375122 800.531372,288.531342 
	C683.137390,289.000000 566.212097,289.000000 449.000000,289.000000 
	C449.000000,353.393463 449.000000,417.196747 449.000000,481.000000 
	C417.312439,481.000000 385.624878,481.000000 353.468658,480.531342 
	C353.000000,416.468323 353.000000,352.873932 353.000000,289.000000 
	C235.268829,289.000000 118.134415,289.000000 1.000000,289.000000 
	C1.000000,257.312439 1.000000,225.624878 1.468657,193.468658 
	C118.862633,193.000000 235.787949,193.000000 353.000000,193.000000 
	C353.000000,128.606506 353.000000,64.803253 353.000000,1.000000 
z"/>
<path fill="#FFFFFF" opacity="1.000000" stroke="none" 
	d="
M352.531342,1.000000 
	C353.000000,64.803253 353.000000,128.606506 353.000000,193.000000 
	C235.787949,193.000000 118.862633,193.000000 1.468657,193.000000 
	C1.000000,129.051483 1.000000,65.102982 1.000000,1.000000 
	C118.020851,1.000000 235.041763,1.000000 352.531342,1.000000 
z"/>
<path fill="#FFFFFF" opacity="1.000000" stroke="none" 
	d="
M801.000000,192.531342 
	C683.865601,193.000000 566.731201,193.000000 449.000000,193.000000 
	C449.000000,129.126068 449.000000,65.531693 449.000000,1.468657 
	C566.238892,1.000000 683.477844,1.000000 801.000000,1.000000 
	C801.000000,64.687279 801.000000,128.374985 801.000000,192.531342 
z"/>
<path fill="#FFFFFF" opacity="1.000000" stroke="none" 
	d="
M1.000000,289.468658 
	C118.134415,289.000000 235.268829,289.000000 353.000000,289.000000 
	C353.000000,352.873932 353.000000,416.468323 353.000000,480.531342 
	C235.761063,481.000000 118.522133,481.000000 1.000000,481.000000 
	C1.000000,417.312714 1.000000,353.625031 1.000000,289.468658 
z"/>
<path fill="#FFFFFF" opacity="1.000000" stroke="none" 
	d="
M449.468658,481.000000 
	C449.000000,417.196747 449.000000,353.393463 449.000000,289.000000 
	C566.212097,289.000000 683.137390,289.000000 800.531372,289.000000 
	C801.000000,352.948517 801.000000,416.897003 801.000000,481.000000 
	C683.979126,481.000000 566.958252,481.000000 449.468658,481.000000 
z"/>
</svg>