<svg version="1.1" id="Layer_1" xmlns="http://www.w3.org/2000/svg" xmlns:xlink="http://www.w3.org/1999/xlink" x="0px" y="0px"
	 width="100%" viewBox="0 0 850 567" enable-background="new 0 0 850 567" xml:space="preserve">
<path fill="#000000" opacity="1.000000" stroke="none" 
	d="
M1.000000,199.000000 
	C1.000000,132.666672 1.000000,66.833336 1.000000,1.000000 
	C284.333344,1.000000 567.666687,1.000000 851.000000,1.000000 
	C851.000000,190.000000 851.000000,379.000000 851.000000,568.000000 
	C567.666687,568.000000 284.333344,568.000000 1.000000,568.000000 
	C1.000000,445.166656 1.000000,322.333344 1.000000,199.000000 
M567.919861,562.972534 
	C660.500793,562.972534 753.081726,562.972534 845.675964,562.972534 
	C845.675964,377.025696 845.675964,191.664429 845.675964,6.000250 
	C843.877991,6.000250 842.402283,6.000251 840.926514,6.000250 
	C750.944580,6.000194 660.962585,5.999420 570.980652,6.007020 
	C569.651123,6.007132 568.321655,6.111415 566.067200,6.012197 
	C473.044434,6.008313 380.021637,6.003736 286.998871,6.007459 
	C285.671478,6.007513 284.344086,6.111439 282.088440,6.030131 
	C190.176605,6.030131 98.264778,6.030131 6.331881,6.030131 
	C6.331881,191.978287 6.331881,377.332550 6.331881,563.000000 
	C8.137479,563.000000 9.613183,563.000000 11.088886,563.000000 
	C100.401611,562.999939 189.714340,563.000671 279.027069,562.992920 
	C280.356659,562.992798 281.686279,562.888855 283.940948,562.980652 
	C377.297150,562.987061 470.653381,562.993896 564.009583,562.992859 
	C565.003723,562.992859 565.997925,562.888855 567.919861,562.972534 
z"/>
<path fill="#FFFFFF" opacity="1.000000" stroke="none" 
	d="
M283.016724,6.166886 
	C284.344086,6.111439 285.671478,6.007513 286.998871,6.007459 
	C380.021637,6.003736 473.044434,6.008313 566.529663,6.547190 
	C567.033325,8.913572 567.110962,10.744968 567.110596,12.576350 
	C567.074890,195.995361 567.033264,379.414368 566.992065,562.833374 
	C565.997925,562.888855 565.003723,562.992859 564.009583,562.992859 
	C470.653381,562.993896 377.297150,562.987061 283.478516,562.483643 
	C283.329803,559.574280 283.921326,557.161377 283.917755,554.749451 
	C283.647461,371.888550 283.330231,189.027725 283.016724,6.166886 
z"/>
<path fill="#FF010B" opacity="1.000000" stroke="none" 
	d="
M567.455933,562.902954 
	C567.033264,379.414368 567.074890,195.995361 567.110596,12.576350 
	C567.110962,10.744968 567.033325,8.913572 566.992126,6.624632 
	C568.321655,6.111415 569.651123,6.007132 570.980652,6.007020 
	C660.962585,5.999420 750.944580,6.000194 840.926514,6.000250 
	C842.402283,6.000251 843.877991,6.000250 845.675964,6.000250 
	C845.675964,191.664429 845.675964,377.025696 845.675964,562.972534 
	C753.081726,562.972534 660.500793,562.972534 567.455933,562.902954 
z"/>
<path fill="#013CE6" opacity="1.000000" stroke="none" 
	d="
M282.552582,6.098509 
	C283.330231,189.027725 283.647461,371.888550 283.917755,554.749451 
	C283.921326,557.161377 283.329803,559.574280 283.015991,562.410034 
	C281.686279,562.888855 280.356659,562.992798 279.027069,562.992920 
	C189.714340,563.000671 100.401611,562.999939 11.088886,563.000000 
	C9.613183,563.000000 8.137479,563.000000 6.331881,563.000000 
	C6.331881,377.332550 6.331881,191.978287 6.331881,6.030131 
	C98.264778,6.030131 190.176605,6.030131 282.552582,6.098509 
z"/>
</svg>