<svg version="1.1" id="Layer_1" xmlns="http://www.w3.org/2000/svg" xmlns:xlink="http://www.w3.org/1999/xlink" x="0px" y="0px"
	 width="100%" viewBox="0 0 275 183" enable-background="new 0 0 275 183" xml:space="preserve">
<path fill="#BC022E" opacity="1.000000" stroke="none" 
	d="
M1.000000,59.000000 
	C1.000000,50.645767 1.000000,42.291534 1.305192,33.572166 
	C8.144831,36.976151 14.573161,40.945789 21.236235,44.471844 
	C34.340065,51.406311 47.619335,58.008835 60.737553,64.916702 
	C68.466690,68.986763 68.392532,69.133530 73.714310,62.122135 
	C73.893852,61.885586 73.931313,61.541180 74.122414,60.999062 
	C73.602341,60.513599 73.043480,59.930004 72.422913,59.421745 
	C57.383667,47.104183 42.293797,34.847931 27.310261,22.463018 
	C18.784729,15.416086 10.431062,8.161226 2.000000,1.000000 
	C13.354228,1.000000 24.708456,1.000000 36.526463,1.357692 
	C37.287800,2.307460 37.483711,2.984754 37.898022,3.478949 
	C45.192337,12.179692 52.548393,20.828850 59.817276,29.550682 
	C65.519661,36.392883 71.691933,42.941418 76.581833,50.330868 
	C80.292496,55.938290 83.417740,54.678349 87.442802,51.663620 
	C87.826073,51.376560 88.078163,50.914337 88.438232,50.476143 
	C79.620712,33.975166 70.810356,17.487583 62.000000,1.000000 
	C68.687645,1.000000 75.375290,1.000000 82.416199,1.390124 
	C87.371567,17.143368 91.973656,32.506489 96.658485,48.145805 
	C99.721275,47.568493 102.390663,47.065338 105.167992,46.541836 
	C103.755722,31.110588 102.377853,16.055294 101.000000,1.000000 
	C106.354927,1.000000 111.709862,1.000000 117.456482,1.343680 
	C116.469292,16.743876 115.090424,31.800388 113.695702,47.029892 
	C116.761307,47.680176 119.276176,48.213634 121.980423,48.787266 
	C123.186478,44.843647 124.336510,41.229229 125.397057,37.588737 
	C128.948593,25.397512 132.468185,13.196973 136.000000,1.000000 
	C142.687637,1.000000 149.375290,1.000000 156.382965,1.314282 
	C147.705902,18.373945 138.708817,35.119328 129.505096,52.249306 
	C132.077332,53.867126 134.291992,55.260056 136.698563,56.773682 
	C143.305344,48.766037 149.799225,41.003391 156.173096,33.143417 
	C164.830154,22.467939 173.395386,11.718007 182.000000,1.000003 
	C193.354233,1.000000 204.708450,1.000000 216.509888,1.343571 
	C205.006409,11.490438 193.061279,21.300550 181.103409,31.095091 
	C169.400589,40.680733 157.711807,50.283920 145.952728,59.800148 
	C143.486267,61.796177 141.592255,63.464703 145.212097,66.131508 
	C146.287766,66.923988 146.959396,68.264893 147.877991,69.433121 
	C181.909439,51.270840 215.548721,33.357239 249.143967,15.361418 
	C257.833588,10.706691 266.385071,5.794129 275.000000,0.999999 
	C275.333344,1.820731 275.952789,2.640007 275.957031,3.462422 
	C276.019287,15.662268 276.000000,27.862524 275.605927,40.466908 
	C234.027496,53.281738 192.843140,65.692345 151.635895,78.109848 
	C152.397751,81.727501 153.007553,84.623207 153.708130,87.949905 
	C159.115738,87.393333 164.343216,86.796928 169.582443,86.333160 
	C174.414139,85.905479 179.272141,85.749146 184.093506,85.237396 
	C189.340973,84.680412 194.554001,83.806496 199.792786,83.157410 
	C203.246674,82.729462 206.712708,82.322540 210.185532,82.143326 
	C214.892090,81.900459 219.639191,82.169205 224.315918,81.695480 
	C229.535873,81.166733 234.686539,79.984520 239.887085,79.220970 
	C242.499466,78.837425 245.151886,78.678444 247.792633,78.546730 
	C252.826340,78.295685 257.880615,78.320641 262.896210,77.884674 
	C267.285614,77.503143 271.633667,76.646667 276.000000,76.000000 
	C276.000000,86.687561 276.000000,97.375122 275.559753,108.575684 
	C267.838226,108.399788 260.554901,107.731773 253.276031,107.018089 
	C231.110748,104.844856 208.948090,102.645012 186.782608,100.473808 
	C175.764069,99.394493 164.741608,98.355186 153.578552,97.284126 
	C152.924744,100.602654 152.356873,103.484894 151.743195,106.599670 
	C153.114075,107.099686 154.314087,107.603676 155.552994,107.979553 
	C184.109238,116.643379 212.657303,125.334419 241.235397,133.925674 
	C252.788971,137.398941 264.409790,140.648590 276.000000,144.000000 
	C276.000000,157.333328 276.000000,170.666672 275.435730,183.654633 
	C232.503113,160.715210 190.134735,138.121140 147.727814,115.506508 
	C145.934052,117.982758 144.483429,119.985313 142.803009,122.305099 
	C149.320465,128.023285 155.640244,133.881500 162.295670,139.329727 
	C171.053955,146.499390 180.106003,153.309006 188.973221,160.347183 
	C193.984802,164.324997 198.923080,168.398483 203.813187,172.525101 
	C208.265793,176.282516 212.608719,180.169907 217.000000,184.000000 
	C205.645767,184.000000 194.291550,184.000000 182.451691,183.656113 
	C166.905731,164.961182 151.845383,146.610138 136.753235,128.220367 
	C134.349701,129.807495 132.176270,131.242691 129.594116,132.947784 
	C138.771072,150.042801 147.885529,167.021408 157.000000,184.000000 
	C150.312363,184.000000 143.624710,184.000000 136.545532,183.603607 
	C131.462418,167.547638 126.770836,151.888077 122.030525,136.065857 
	C118.991577,136.812683 116.492569,137.426804 113.713394,138.109787 
	C115.161079,153.607941 116.580536,168.803970 118.000000,184.000000 
	C112.645073,184.000000 107.290138,184.000000 101.439262,183.564301 
	C102.368591,168.271774 103.793877,153.414963 105.241188,138.328461 
	C102.142273,137.854568 99.470680,137.446030 96.701256,137.022537 
	C94.797562,143.121368 92.925026,148.766678 91.277565,154.476929 
	C88.444466,164.296616 85.751678,174.156815 83.000000,184.000000 
	C76.312355,184.000000 69.624710,184.000000 62.587059,183.672607 
	C71.007515,167.029938 79.777985,150.714661 88.645592,134.218674 
	C85.946526,132.596680 83.591698,131.181549 81.034134,129.644592 
	C72.402328,140.143143 63.914482,150.366562 55.541527,160.683212 
	C49.284195,168.393143 43.175106,176.223358 37.000000,184.000000 
	C25.645771,184.000000 14.291543,184.000000 2.494195,183.656982 
	C26.168028,163.503296 50.284981,143.692627 74.427055,123.861313 
	C72.204681,120.998032 70.301369,118.545815 68.390488,116.083847 
	C45.771770,128.138626 23.385883,140.069305 0.999997,152.000000 
	C1.000000,143.645767 1.000000,135.291534 1.394771,126.528610 
	C22.598257,119.838707 43.406971,113.557510 64.355675,107.234055 
	C63.559948,103.596550 62.903229,100.594498 62.206184,97.408096 
	C54.462513,98.169182 47.056767,98.945442 39.641392,99.615150 
	C26.764061,100.778130 13.880784,101.875259 1.000000,103.000000 
	C1.000000,96.312355 1.000000,89.624710 1.429194,82.393227 
	C21.910967,83.811592 41.963547,85.773796 62.288612,87.762665 
	C62.981663,84.131653 63.580288,80.995361 64.197731,77.760506 
	C56.925743,75.533707 50.153168,73.398117 43.343674,71.387550 
	C29.239511,67.223160 15.115719,63.125252 1.000000,59.000000 
z"/>
<path fill="#FEFCFC" opacity="1.000000" stroke="none" 
	d="
M276.000000,75.531342 
	C271.633667,76.646667 267.285614,77.503143 262.896210,77.884674 
	C257.880615,78.320641 252.826340,78.295685 247.792633,78.546730 
	C245.151886,78.678444 242.499466,78.837425 239.887085,79.220970 
	C234.686539,79.984520 229.535873,81.166733 224.315918,81.695480 
	C219.639191,82.169205 214.892090,81.900459 210.185532,82.143326 
	C206.712708,82.322540 203.246674,82.729462 199.792786,83.157410 
	C194.554001,83.806496 189.340973,84.680412 184.093506,85.237396 
	C179.272141,85.749146 174.414139,85.905479 169.582443,86.333160 
	C164.343216,86.796928 159.115738,87.393333 153.708130,87.949905 
	C153.007553,84.623207 152.397751,81.727501 151.635895,78.109848 
	C192.843140,65.692345 234.027496,53.281738 275.605927,40.935566 
	C276.000000,52.354229 276.000000,63.708454 276.000000,75.531342 
z"/>
<path fill="#FEFCFC" opacity="1.000000" stroke="none" 
	d="
M276.000000,143.531342 
	C264.409790,140.648590 252.788971,137.398941 241.235397,133.925674 
	C212.657303,125.334419 184.109238,116.643379 155.552994,107.979553 
	C154.314087,107.603676 153.114075,107.099686 151.743195,106.599670 
	C152.356873,103.484894 152.924744,100.602654 153.578552,97.284126 
	C164.741608,98.355186 175.764069,99.394493 186.782608,100.473808 
	C208.948090,102.645012 231.110748,104.844856 253.276031,107.018089 
	C260.554901,107.731773 267.838226,108.399788 275.559753,109.044342 
	C276.000000,120.354225 276.000000,131.708450 276.000000,143.531342 
z"/>
<path fill="#FEFCFC" opacity="1.000000" stroke="none" 
	d="
M217.468658,184.000000 
	C212.608719,180.169907 208.265793,176.282516 203.813187,172.525101 
	C198.923080,168.398483 193.984802,164.324997 188.973221,160.347183 
	C180.106003,153.309006 171.053955,146.499390 162.295670,139.329727 
	C155.640244,133.881500 149.320465,128.023285 142.803009,122.305099 
	C144.483429,119.985313 145.934052,117.982758 147.727814,115.506508 
	C190.134735,138.121140 232.503113,160.715210 274.935730,183.654633 
	C255.979111,184.000000 236.958206,184.000000 217.468658,184.000000 
z"/>
<path fill="#FEFCFD" opacity="1.000000" stroke="none" 
	d="
M274.531342,1.000001 
	C266.385071,5.794129 257.833588,10.706691 249.143967,15.361418 
	C215.548721,33.357239 181.909439,51.270840 147.877991,69.433121 
	C146.959396,68.264893 146.287766,66.923988 145.212097,66.131508 
	C141.592255,63.464703 143.486267,61.796177 145.952728,59.800148 
	C157.711807,50.283920 169.400589,40.680733 181.103409,31.095091 
	C193.061279,21.300550 205.006409,11.490438 216.978546,1.343571 
	C236.020889,1.000000 255.041794,1.000000 274.531342,1.000001 
z"/>
<path fill="#FEFCFC" opacity="1.000000" stroke="none" 
	d="
M1.500000,1.000000 
	C10.431062,8.161226 18.784729,15.416086 27.310261,22.463018 
	C42.293797,34.847931 57.383667,47.104183 72.422913,59.421745 
	C73.043480,59.930004 73.602341,60.513599 74.122414,60.999062 
	C73.931313,61.541180 73.893852,61.885586 73.714310,62.122135 
	C68.392532,69.133530 68.466690,68.986763 60.737553,64.916702 
	C47.619335,58.008835 34.340065,51.406311 21.236235,44.471844 
	C14.573161,40.945789 8.144831,36.976151 1.305192,33.103516 
	C1.000000,22.333334 1.000000,11.666667 1.500000,1.000000 
z"/>
<path fill="#FEFCFC" opacity="1.000000" stroke="none" 
	d="
M0.999997,152.468658 
	C23.385883,140.069305 45.771770,128.138626 68.390488,116.083847 
	C70.301369,118.545815 72.204681,120.998032 74.427055,123.861313 
	C50.284981,143.692627 26.168028,163.503296 2.025538,183.656982 
	C1.666668,183.182358 1.049222,182.366745 1.043391,181.546783 
	C0.975570,172.010666 1.000000,162.473907 0.999997,152.468658 
z"/>
<path fill="#FDFAFB" opacity="1.000000" stroke="none" 
	d="
M1.000000,59.468624 
	C15.115719,63.125252 29.239511,67.223160 43.343674,71.387550 
	C50.153168,73.398117 56.925743,75.533707 64.197731,77.760506 
	C63.580288,80.995361 62.981663,84.131653 62.288612,87.762665 
	C41.963547,85.773796 21.910967,83.811592 1.429194,81.924698 
	C1.000000,74.645752 1.000000,67.291496 1.000000,59.468624 
z"/>
<path fill="#FEFBFB" opacity="1.000000" stroke="none" 
	d="
M1.000000,103.468620 
	C13.880784,101.875259 26.764061,100.778130 39.641392,99.615150 
	C47.056767,98.945442 54.462513,98.169182 62.206184,97.408096 
	C62.903229,100.594498 63.559948,103.596550 64.355675,107.234055 
	C43.406971,113.557510 22.598257,119.838707 1.394771,126.059952 
	C1.000000,118.645744 1.000000,111.291496 1.000000,103.468620 
z"/>
<path fill="#FEFCFC" opacity="1.000000" stroke="none" 
	d="
M157.468643,184.000000 
	C147.885529,167.021408 138.771072,150.042801 129.594116,132.947784 
	C132.176270,131.242691 134.349701,129.807495 136.753235,128.220367 
	C151.845383,146.610138 166.905731,164.961182 181.983032,183.656113 
	C173.979095,184.000000 165.958191,184.000000 157.468643,184.000000 
z"/>
<path fill="#FEFCFC" opacity="1.000000" stroke="none" 
	d="
M181.531357,1.000003 
	C173.395386,11.718007 164.830154,22.467939 156.173096,33.143417 
	C149.799225,41.003391 143.305344,48.766037 136.698563,56.773682 
	C134.291992,55.260056 132.077332,53.867126 129.505096,52.249306 
	C138.708817,35.119328 147.705902,18.373945 156.851501,1.314282 
	C165.020905,1.000000 173.041809,1.000000 181.531357,1.000003 
z"/>
<path fill="#FDFBFB" opacity="1.000000" stroke="none" 
	d="
M61.531349,1.000000 
	C70.810356,17.487583 79.620712,33.975166 88.438232,50.476143 
	C88.078163,50.914337 87.826073,51.376560 87.442802,51.663620 
	C83.417740,54.678349 80.292496,55.938290 76.581833,50.330868 
	C71.691933,42.941418 65.519661,36.392883 59.817276,29.550682 
	C52.548393,20.828850 45.192337,12.179692 37.898022,3.478949 
	C37.483711,2.984754 37.287800,2.307460 36.995121,1.357692 
	C45.020901,1.000000 53.041798,1.000000 61.531349,1.000000 
z"/>
<path fill="#FEFBFC" opacity="1.000000" stroke="none" 
	d="
M37.468651,184.000000 
	C43.175106,176.223358 49.284195,168.393143 55.541527,160.683212 
	C63.914482,150.366562 72.402328,140.143143 81.034134,129.644592 
	C83.591698,131.181549 85.946526,132.596680 88.645592,134.218674 
	C79.777985,150.714661 71.007515,167.029938 62.118530,183.672607 
	C53.979099,184.000000 45.958202,184.000000 37.468651,184.000000 
z"/>
<path fill="#FDFAFB" opacity="1.000000" stroke="none" 
	d="
M135.532059,1.000000 
	C132.468185,13.196973 128.948593,25.397512 125.397057,37.588737 
	C124.336510,41.229229 123.186478,44.843647 121.980423,48.787266 
	C119.276176,48.213634 116.761307,47.680176 113.695702,47.029892 
	C115.090424,31.800388 116.469292,16.743876 117.924088,1.343680 
	C123.688042,1.000000 129.376083,1.000000 135.532059,1.000000 
z"/>
<path fill="#FDFAFB" opacity="1.000000" stroke="none" 
	d="
M118.467941,184.000000 
	C116.580536,168.803970 115.161079,153.607941 113.713394,138.109787 
	C116.492569,137.426804 118.991577,136.812683 122.030525,136.065857 
	C126.770836,151.888077 131.462418,167.547638 136.076996,183.603607 
	C130.311951,184.000000 124.623917,184.000000 118.467941,184.000000 
z"/>
<path fill="#FDFAFA" opacity="1.000000" stroke="none" 
	d="
M83.467941,184.000000 
	C85.751678,174.156815 88.444466,164.296616 91.277565,154.476929 
	C92.925026,148.766678 94.797562,143.121368 96.701256,137.022537 
	C99.470680,137.446030 102.142273,137.854568 105.241188,138.328461 
	C103.793877,153.414963 102.368591,168.271774 100.971657,183.564301 
	C95.311958,184.000000 89.623917,184.000000 83.467941,184.000000 
z"/>
<path fill="#FDFAFB" opacity="1.000000" stroke="none" 
	d="
M100.532059,1.000000 
	C102.377853,16.055294 103.755722,31.110588 105.167992,46.541836 
	C102.390663,47.065338 99.721275,47.568493 96.658485,48.145805 
	C91.973656,32.506489 87.371567,17.143368 82.884735,1.390124 
	C88.688042,1.000000 94.376083,1.000000 100.532059,1.000000 
z"/>
</svg>