<svg version="1.1" id="Layer_1" xmlns="http://www.w3.org/2000/svg" xmlns:xlink="http://www.w3.org/1999/xlink" x="0px" y="0px"
	 width="100%" viewBox="0 0 284 177" enable-background="new 0 0 284 177" xml:space="preserve">
<path fill="#FFFFFF" opacity="1.000000" stroke="none" 
	d="
M1.000000,90.000000 
	C1.000000,60.361446 1.000000,30.722891 1.000000,1.042168 
	C95.548836,1.042168 190.097687,1.042168 285.000000,1.042168 
	C285.000000,30.353281 285.000000,59.707981 284.751770,89.429214 
	C284.331177,89.843719 284.158783,89.891693 283.530182,89.825851 
	C190.375717,89.698135 97.677429,89.683411 4.979138,89.681519 
	C3.990152,89.681503 3.001163,89.849892 1.753928,89.867462 
	C1.330454,89.863503 1.165227,89.931755 1.000000,90.000000 
z"/>
<path fill="#DC143C" opacity="1.000000" stroke="none" 
	d="
M2.012176,89.939667 
	C3.001163,89.849892 3.990152,89.681503 4.979138,89.681519 
	C97.677429,89.683411 190.375717,89.698135 283.636963,90.056183 
	C284.466644,90.600212 284.733307,90.800110 285.000000,91.000000 
	C285.000000,119.972282 285.000000,148.944565 285.000000,177.958420 
	C190.451553,177.958420 95.903099,177.958420 1.000000,177.958420 
	C1.000000,149.313416 1.000000,120.625366 1.226215,91.353729 
	C1.639012,90.493317 1.825595,90.216492 2.012176,89.939667 
z"/>
<path fill="#DB002E" opacity="1.000000" stroke="none" 
	d="
M1.753929,89.867462 
	C1.825595,90.216492 1.639012,90.493317 1.226215,90.885071 
	C1.000000,91.000000 1.000000,90.500000 1.000000,90.250000 
	C1.165227,89.931755 1.330454,89.863503 1.753929,89.867462 
z"/>
<path fill="#DB002E" opacity="1.000000" stroke="none" 
	d="
M285.000000,90.750000 
	C284.733307,90.800110 284.466644,90.600212 284.093140,90.169998 
	C284.158783,89.891693 284.331177,89.843719 284.751770,89.897873 
	C285.000000,90.000000 285.000000,90.500000 285.000000,90.750000 
z"/>
</svg>